<mxfile host="app.diagrams.net" modified="2023-12-11T19:29:42.985Z" agent="Mozilla/5.0 (Windows NT 10.0; Win64; x64) AppleWebKit/537.36 (KHTML, like Gecko) Chrome/118.0.5993.731 YaBrowser/23.11.1.731 Yowser/2.5 Safari/537.36" etag="OlJAj7vs2RlaWdx1ySsK" version="22.1.7" type="device">
  <diagram name="Страница — 1" id="9HU9LUgT73UyrHzqDuFJ">
    <mxGraphModel dx="698" dy="376" grid="1" gridSize="10" guides="1" tooltips="1" connect="1" arrows="1" fold="1" page="1" pageScale="1" pageWidth="827" pageHeight="1169" math="0" shadow="0">
      <root>
        <mxCell id="0" />
        <mxCell id="1" parent="0" />
        <mxCell id="X51lbvxlshLhDIivk5bO-79" style="edgeStyle=orthogonalEdgeStyle;rounded=0;orthogonalLoop=1;jettySize=auto;html=1;exitX=0.5;exitY=1;exitDx=0;exitDy=0;entryX=0.5;entryY=0;entryDx=0;entryDy=0;fontSize=18;" parent="1" source="X51lbvxlshLhDIivk5bO-2" target="X51lbvxlshLhDIivk5bO-4" edge="1">
          <mxGeometry relative="1" as="geometry" />
        </mxCell>
        <mxCell id="X51lbvxlshLhDIivk5bO-2" value="&lt;font style=&quot;font-size: 18px;&quot;&gt;НАЧАЛО&lt;/font&gt;" style="rounded=1;whiteSpace=wrap;html=1;fontSize=18;" parent="1" vertex="1">
          <mxGeometry x="344" y="30" width="120" height="60" as="geometry" />
        </mxCell>
        <mxCell id="X51lbvxlshLhDIivk5bO-80" style="edgeStyle=orthogonalEdgeStyle;rounded=0;orthogonalLoop=1;jettySize=auto;html=1;exitX=0.5;exitY=1;exitDx=0;exitDy=0;entryX=0.5;entryY=0;entryDx=0;entryDy=0;fontSize=18;" parent="1" source="X51lbvxlshLhDIivk5bO-4" target="X51lbvxlshLhDIivk5bO-23" edge="1">
          <mxGeometry relative="1" as="geometry" />
        </mxCell>
        <mxCell id="X51lbvxlshLhDIivk5bO-4" value="&lt;font style=&quot;font-size: 18px;&quot;&gt;Ввод s&lt;/font&gt;" style="shape=parallelogram;perimeter=parallelogramPerimeter;whiteSpace=wrap;html=1;fixedSize=1;fontSize=18;" parent="1" vertex="1">
          <mxGeometry x="344" y="118" width="120" height="60" as="geometry" />
        </mxCell>
        <mxCell id="X51lbvxlshLhDIivk5bO-5" style="edgeStyle=orthogonalEdgeStyle;rounded=0;orthogonalLoop=1;jettySize=auto;html=1;exitX=0.5;exitY=1;exitDx=0;exitDy=0;entryX=0.5;entryY=0;entryDx=0;entryDy=0;fontSize=18;" parent="1" target="X51lbvxlshLhDIivk5bO-10" edge="1">
          <mxGeometry relative="1" as="geometry">
            <mxPoint x="410" y="386" as="sourcePoint" />
          </mxGeometry>
        </mxCell>
        <mxCell id="X51lbvxlshLhDIivk5bO-78" value="&lt;font style=&quot;font-size: 18px;&quot;&gt;да&lt;/font&gt;" style="edgeLabel;html=1;align=center;verticalAlign=middle;resizable=0;points=[];fontSize=18;" parent="X51lbvxlshLhDIivk5bO-5" vertex="1" connectable="0">
          <mxGeometry x="-0.1488" y="3" relative="1" as="geometry">
            <mxPoint as="offset" />
          </mxGeometry>
        </mxCell>
        <mxCell id="X51lbvxlshLhDIivk5bO-8" value="&lt;font style=&quot;font-size: 18px;&quot;&gt;КОНЕЦ&lt;/font&gt;" style="rounded=1;whiteSpace=wrap;html=1;fontSize=18;" parent="1" vertex="1">
          <mxGeometry x="350" y="1306" width="120" height="60" as="geometry" />
        </mxCell>
        <mxCell id="X51lbvxlshLhDIivk5bO-66" style="edgeStyle=orthogonalEdgeStyle;rounded=0;orthogonalLoop=1;jettySize=auto;html=1;exitX=1;exitY=0.5;exitDx=0;exitDy=0;entryX=0.5;entryY=0;entryDx=0;entryDy=0;fontSize=18;" parent="1" source="X51lbvxlshLhDIivk5bO-22" target="X51lbvxlshLhDIivk5bO-16" edge="1">
          <mxGeometry relative="1" as="geometry">
            <mxPoint x="490" y="516" as="targetPoint" />
            <Array as="points">
              <mxPoint x="510" y="346" />
              <mxPoint x="510" y="606" />
              <mxPoint x="410" y="606" />
            </Array>
          </mxGeometry>
        </mxCell>
        <mxCell id="X51lbvxlshLhDIivk5bO-67" value="&lt;font style=&quot;font-size: 18px;&quot;&gt;НЕТ&lt;/font&gt;" style="edgeLabel;html=1;align=center;verticalAlign=middle;resizable=0;points=[];fontSize=18;" parent="X51lbvxlshLhDIivk5bO-66" vertex="1" connectable="0">
          <mxGeometry x="-0.3483" y="-1" relative="1" as="geometry">
            <mxPoint as="offset" />
          </mxGeometry>
        </mxCell>
        <mxCell id="X51lbvxlshLhDIivk5bO-75" style="edgeStyle=orthogonalEdgeStyle;rounded=0;orthogonalLoop=1;jettySize=auto;html=1;exitX=0.5;exitY=1;exitDx=0;exitDy=0;entryX=0.5;entryY=0;entryDx=0;entryDy=0;fontSize=18;" parent="1" source="X51lbvxlshLhDIivk5bO-10" target="X51lbvxlshLhDIivk5bO-74" edge="1">
          <mxGeometry relative="1" as="geometry" />
        </mxCell>
        <mxCell id="X51lbvxlshLhDIivk5bO-10" value="&lt;font style=&quot;font-size: 18px;&quot;&gt;Ввод a&lt;/font&gt;" style="shape=parallelogram;perimeter=parallelogramPerimeter;whiteSpace=wrap;html=1;fixedSize=1;fontSize=18;" parent="1" vertex="1">
          <mxGeometry x="350" y="426" width="120" height="60" as="geometry" />
        </mxCell>
        <mxCell id="X51lbvxlshLhDIivk5bO-11" style="edgeStyle=orthogonalEdgeStyle;rounded=0;orthogonalLoop=1;jettySize=auto;html=1;exitX=0.5;exitY=1;exitDx=0;exitDy=0;fontSize=18;" parent="1" edge="1">
          <mxGeometry relative="1" as="geometry">
            <mxPoint x="409.80952380952374" y="731" as="targetPoint" />
            <mxPoint x="410" y="701" as="sourcePoint" />
          </mxGeometry>
        </mxCell>
        <mxCell id="X51lbvxlshLhDIivk5bO-12" style="edgeStyle=orthogonalEdgeStyle;rounded=0;orthogonalLoop=1;jettySize=auto;html=1;exitX=0.5;exitY=1;exitDx=0;exitDy=0;fontSize=18;" parent="1" edge="1">
          <mxGeometry relative="1" as="geometry">
            <mxPoint x="409.80952380952374" y="928" as="targetPoint" />
            <mxPoint x="409" y="898" as="sourcePoint" />
          </mxGeometry>
        </mxCell>
        <mxCell id="X51lbvxlshLhDIivk5bO-77" value="&lt;font style=&quot;font-size: 18px;&quot;&gt;да&lt;/font&gt;" style="edgeLabel;html=1;align=center;verticalAlign=middle;resizable=0;points=[];fontSize=18;" parent="X51lbvxlshLhDIivk5bO-12" vertex="1" connectable="0">
          <mxGeometry x="-0.3532" y="1" relative="1" as="geometry">
            <mxPoint as="offset" />
          </mxGeometry>
        </mxCell>
        <mxCell id="X51lbvxlshLhDIivk5bO-15" style="edgeStyle=orthogonalEdgeStyle;rounded=0;orthogonalLoop=1;jettySize=auto;html=1;exitX=0.5;exitY=1;exitDx=0;exitDy=0;fontSize=18;" parent="1" edge="1">
          <mxGeometry relative="1" as="geometry">
            <mxPoint x="410" y="799" as="targetPoint" />
            <mxPoint x="409" y="1080" as="sourcePoint" />
            <Array as="points">
              <mxPoint x="409" y="1090" />
              <mxPoint x="320" y="1090" />
              <mxPoint x="320" y="799" />
              <mxPoint x="409" y="799" />
            </Array>
          </mxGeometry>
        </mxCell>
        <mxCell id="X51lbvxlshLhDIivk5bO-48" value="&lt;span style=&quot;font-size: 18px;&quot;&gt;ДА&lt;/span&gt;" style="edgeLabel;html=1;align=center;verticalAlign=middle;resizable=0;points=[];fontSize=18;" parent="X51lbvxlshLhDIivk5bO-15" vertex="1" connectable="0">
          <mxGeometry x="0.2795" y="4" relative="1" as="geometry">
            <mxPoint y="-8" as="offset" />
          </mxGeometry>
        </mxCell>
        <mxCell id="X51lbvxlshLhDIivk5bO-16" value="&lt;font style=&quot;font-size: 18px;&quot;&gt;sum = 0&lt;/font&gt;" style="rounded=0;whiteSpace=wrap;html=1;fontSize=18;" parent="1" vertex="1">
          <mxGeometry x="350" y="641" width="120" height="60" as="geometry" />
        </mxCell>
        <mxCell id="X51lbvxlshLhDIivk5bO-68" style="edgeStyle=orthogonalEdgeStyle;rounded=0;orthogonalLoop=1;jettySize=auto;html=1;exitX=1;exitY=0.5;exitDx=0;exitDy=0;entryX=0.5;entryY=0;entryDx=0;entryDy=0;fontSize=18;" parent="1" source="X51lbvxlshLhDIivk5bO-60" target="X51lbvxlshLhDIivk5bO-19" edge="1">
          <mxGeometry relative="1" as="geometry">
            <mxPoint x="510" y="1028" as="targetPoint" />
            <Array as="points">
              <mxPoint x="520" y="858" />
              <mxPoint x="520" y="1106" />
              <mxPoint x="410" y="1106" />
            </Array>
          </mxGeometry>
        </mxCell>
        <mxCell id="X51lbvxlshLhDIivk5bO-69" value="&lt;font style=&quot;font-size: 18px;&quot;&gt;НЕТ&lt;/font&gt;" style="edgeLabel;html=1;align=center;verticalAlign=middle;resizable=0;points=[];fontSize=18;" parent="X51lbvxlshLhDIivk5bO-68" vertex="1" connectable="0">
          <mxGeometry x="-0.3521" y="-2" relative="1" as="geometry">
            <mxPoint as="offset" />
          </mxGeometry>
        </mxCell>
        <mxCell id="X51lbvxlshLhDIivk5bO-73" style="edgeStyle=orthogonalEdgeStyle;rounded=0;orthogonalLoop=1;jettySize=auto;html=1;exitX=0.5;exitY=1;exitDx=0;exitDy=0;entryX=0.5;entryY=0;entryDx=0;entryDy=0;fontSize=18;" parent="1" source="X51lbvxlshLhDIivk5bO-17" target="X51lbvxlshLhDIivk5bO-72" edge="1">
          <mxGeometry relative="1" as="geometry" />
        </mxCell>
        <mxCell id="X51lbvxlshLhDIivk5bO-17" value="&lt;font style=&quot;font-size: 18px;&quot;&gt;sum = sum +&lt;br style=&quot;font-size: 18px;&quot;&gt;&amp;nbsp;a от arr&lt;/font&gt;" style="rounded=0;whiteSpace=wrap;html=1;fontSize=18;" parent="1" vertex="1">
          <mxGeometry x="350" y="928" width="120" height="60" as="geometry" />
        </mxCell>
        <mxCell id="X51lbvxlshLhDIivk5bO-18" style="edgeStyle=orthogonalEdgeStyle;rounded=0;orthogonalLoop=1;jettySize=auto;html=1;exitX=0.5;exitY=1;exitDx=0;exitDy=0;fontSize=18;" parent="1" source="X51lbvxlshLhDIivk5bO-19" target="X51lbvxlshLhDIivk5bO-21" edge="1">
          <mxGeometry relative="1" as="geometry" />
        </mxCell>
        <mxCell id="X51lbvxlshLhDIivk5bO-19" value="&lt;font style=&quot;font-size: 18px;&quot;&gt;avg = sum / s&lt;/font&gt;" style="rounded=0;whiteSpace=wrap;html=1;fontSize=18;" parent="1" vertex="1">
          <mxGeometry x="350" y="1127" width="120" height="60" as="geometry" />
        </mxCell>
        <mxCell id="X51lbvxlshLhDIivk5bO-20" style="edgeStyle=orthogonalEdgeStyle;rounded=0;orthogonalLoop=1;jettySize=auto;html=1;exitX=0.5;exitY=1;exitDx=0;exitDy=0;entryX=0.5;entryY=0;entryDx=0;entryDy=0;fontSize=18;" parent="1" source="X51lbvxlshLhDIivk5bO-21" target="X51lbvxlshLhDIivk5bO-8" edge="1">
          <mxGeometry relative="1" as="geometry" />
        </mxCell>
        <mxCell id="X51lbvxlshLhDIivk5bO-21" value="&lt;font style=&quot;font-size: 18px;&quot;&gt;Ввод avg&lt;/font&gt;" style="shape=parallelogram;perimeter=parallelogramPerimeter;whiteSpace=wrap;html=1;fixedSize=1;fontSize=18;" parent="1" vertex="1">
          <mxGeometry x="350" y="1216" width="120" height="60" as="geometry" />
        </mxCell>
        <mxCell id="X51lbvxlshLhDIivk5bO-22" value="&lt;font style=&quot;font-size: 16px;&quot;&gt;a &amp;lt;= Размер s&lt;/font&gt;" style="rhombus;whiteSpace=wrap;html=1;fontSize=18;" parent="1" vertex="1">
          <mxGeometry x="345" y="306" width="130" height="81" as="geometry" />
        </mxCell>
        <mxCell id="X51lbvxlshLhDIivk5bO-41" style="edgeStyle=orthogonalEdgeStyle;rounded=0;orthogonalLoop=1;jettySize=auto;html=1;exitX=0.5;exitY=1;exitDx=0;exitDy=0;entryX=0.5;entryY=0;entryDx=0;entryDy=0;fontSize=18;" parent="1" source="X51lbvxlshLhDIivk5bO-23" target="X51lbvxlshLhDIivk5bO-22" edge="1">
          <mxGeometry relative="1" as="geometry" />
        </mxCell>
        <mxCell id="X51lbvxlshLhDIivk5bO-23" value="&lt;font style=&quot;font-size: 18px;&quot;&gt;a = 1&amp;nbsp;&lt;/font&gt;" style="rounded=0;whiteSpace=wrap;html=1;fontSize=18;" parent="1" vertex="1">
          <mxGeometry x="344" y="216" width="120" height="60" as="geometry" />
        </mxCell>
        <mxCell id="X51lbvxlshLhDIivk5bO-60" value="&lt;font style=&quot;font-size: 16px;&quot;&gt;a &amp;lt;= Размер s&lt;/font&gt;" style="rhombus;whiteSpace=wrap;html=1;fontSize=18;" parent="1" vertex="1">
          <mxGeometry x="344" y="818" width="130" height="81" as="geometry" />
        </mxCell>
        <mxCell id="X51lbvxlshLhDIivk5bO-70" value="&lt;font style=&quot;font-size: 18px;&quot;&gt;a = 1&amp;nbsp;&lt;/font&gt;" style="rounded=0;whiteSpace=wrap;html=1;fontSize=18;" parent="1" vertex="1">
          <mxGeometry x="349" y="731" width="120" height="60" as="geometry" />
        </mxCell>
        <mxCell id="X51lbvxlshLhDIivk5bO-71" value="" style="endArrow=classic;html=1;rounded=0;exitX=0.5;exitY=1;exitDx=0;exitDy=0;entryX=0.5;entryY=0;entryDx=0;entryDy=0;fontSize=18;" parent="1" source="X51lbvxlshLhDIivk5bO-70" target="X51lbvxlshLhDIivk5bO-60" edge="1">
          <mxGeometry width="50" height="50" relative="1" as="geometry">
            <mxPoint x="490" y="991" as="sourcePoint" />
            <mxPoint x="540" y="941" as="targetPoint" />
          </mxGeometry>
        </mxCell>
        <mxCell id="X51lbvxlshLhDIivk5bO-72" value="a +=1" style="rounded=0;whiteSpace=wrap;html=1;fontSize=18;" parent="1" vertex="1">
          <mxGeometry x="349" y="1021" width="120" height="60" as="geometry" />
        </mxCell>
        <mxCell id="X51lbvxlshLhDIivk5bO-74" value="&lt;span style=&quot;font-size: 18px;&quot;&gt;a+=1&lt;/span&gt;" style="rounded=0;whiteSpace=wrap;html=1;fontSize=18;" parent="1" vertex="1">
          <mxGeometry x="355" y="516" width="120" height="60" as="geometry" />
        </mxCell>
        <mxCell id="X51lbvxlshLhDIivk5bO-83" style="edgeStyle=orthogonalEdgeStyle;rounded=0;orthogonalLoop=1;jettySize=auto;html=1;fontSize=18;" parent="1" edge="1">
          <mxGeometry relative="1" as="geometry">
            <mxPoint x="410" y="290" as="targetPoint" />
            <mxPoint x="410" y="576" as="sourcePoint" />
            <Array as="points">
              <mxPoint x="410" y="590" />
              <mxPoint x="320" y="590" />
              <mxPoint x="320" y="290" />
              <mxPoint x="410" y="290" />
            </Array>
          </mxGeometry>
        </mxCell>
        <mxCell id="X51lbvxlshLhDIivk5bO-84" value="&lt;span style=&quot;font-size: 18px;&quot;&gt;ДА&lt;/span&gt;" style="edgeLabel;html=1;align=center;verticalAlign=middle;resizable=0;points=[];fontSize=18;" parent="X51lbvxlshLhDIivk5bO-83" vertex="1" connectable="0">
          <mxGeometry x="0.2795" y="4" relative="1" as="geometry">
            <mxPoint y="-8" as="offset" />
          </mxGeometry>
        </mxCell>
      </root>
    </mxGraphModel>
  </diagram>
</mxfile>
